<?xml version="1.0" encoding="UTF-8" standalone="no"?>
<svg
   xmlns:dc="http://purl.org/dc/elements/1.1/"
   xmlns:cc="http://creativecommons.org/ns#"
   xmlns:rdf="http://www.w3.org/1999/02/22-rdf-syntax-ns#"
   xmlns:svg="http://www.w3.org/2000/svg"
   xmlns="http://www.w3.org/2000/svg"
   xmlns:sodipodi="http://sodipodi.sourceforge.net/DTD/sodipodi-0.dtd"
   xmlns:inkscape="http://www.inkscape.org/namespaces/inkscape"
   width="557pt"
   height="552pt"
   viewBox="0 0 557 552"
   version="1.1"
   id="svg2"
   inkscape:version="0.48.1 "
   sodipodi:docname="Chilevision_NoEffect.svg">
  <metadata
     id="metadata18">
    <rdf:RDF>
      <cc:Work
         rdf:about="">
        <dc:format>image/svg+xml</dc:format>
        <dc:type
           rdf:resource="http://purl.org/dc/dcmitype/StillImage" />
      </cc:Work>
    </rdf:RDF>
  </metadata>
  <defs
     id="defs16" />
  <sodipodi:namedview
     pagecolor="#ffffff"
     bordercolor="#666666"
     borderopacity="1"
     objecttolerance="10"
     gridtolerance="10"
     guidetolerance="10"
     inkscape:pageopacity="0"
     inkscape:pageshadow="2"
     inkscape:window-width="1366"
     inkscape:window-height="706"
     id="namedview14"
     showgrid="false"
     inkscape:zoom="0.35355339"
     inkscape:cx="613.90098"
     inkscape:cy="289.95423"
     inkscape:window-x="-8"
     inkscape:window-y="-8"
     inkscape:window-maximized="1"
     inkscape:current-layer="svg2" />
  <g
     id="#c9091eff"
     transform="matrix(0.97085425,0,0,0.97063318,2.6068214,9.2199277)">
    <path
       d="m 260.45,6.62 c 29.57,-1.83 59.68,-1.23 88.48,6.42 42.74,10.71 83.03,31.73 115.89,61.14 54.38,47.79 87.62,118.48 90.14,190.8 3.41,69.64 -23.11,139.67 -69.94,191.03 -23.61,26.57 -53.2,47.4 -85.04,62.93 -24.14,10.96 -49.42,19.98 -75.84,23.3 -40.98,5.45 -83.45,3.61 -122.85,-9.61 C 135.56,511.96 78.26,465.4 45.15,404.9 11.68,343.69 2.29,269.19 22.08,202.05 32.85,164.67 51.28,129.3 77.05,100.05 122.64,46.33 190.13,11.75 260.45,6.62 m -81.23,138.62 c -1.11,24.67 -6.23,49.01 -6.25,73.75 0.02,43.34 0.03,86.68 0.03,130.01 11.41,-0.02 22.82,-0.01 34.23,0.01 -3.93,-33.86 -1.67,-68.01 -2.22,-102 48.66,-0.02 97.32,-0.02 145.99,0 -0.26,21.99 0.6,44 -0.37,65.99 -0.97,11.98 -1.7,23.98 -1.83,36.01 11.4,-0.03 22.79,-0.03 34.19,0 0.06,-33.67 -0.08,-67.34 0.08,-101.01 0.44,-24.18 -1.93,-48.31 -5.49,-72.2 -0.9,-10.93 -1.27,-21.9 -2.62,-32.79 -10.73,0.01 -21.46,0.01 -32.19,-0.01 1.79,24.7 4.84,49.28 6.48,73.99 -47.43,0.03 -94.86,0.01 -142.28,0.01 -1.31,-24.89 3.56,-49.44 4.27,-74.24 -10.65,1.15 -21.29,2.41 -32.02,2.48 m 204.89,-0.28 c 1.26,4.2 1.27,9.11 4.25,12.62 8.9,11.69 16.08,24.53 24.11,36.8 8.72,15.6 16.24,31.82 23.75,48.03 5.86,16.04 13.93,31.28 18.48,47.79 2.19,7.69 5.62,14.95 7.59,22.7 3.44,12.53 5.87,25.29 8.86,37.93 13.74,1.75 27.57,2.4 41.42,2.19 4.52,-13.09 9.93,-25.87 13.46,-39.29 6.17,-17.13 6.95,-35.49 10.36,-53.24 1.2,-12.78 0.47,-25.67 0.7,-38.49 -0.24,-11.78 0.69,-23.74 -1.61,-35.37 -0.95,-4.12 -1.98,-8.82 -5.46,-11.64 -6.64,-5.17 -15.08,-7.1 -23.36,-6.6 1.8,22.15 4.2,44.55 0.83,66.68 -3.15,19.63 -4.47,39.8 -11.59,58.55 -2.48,-12.89 -5.96,-25.53 -10.46,-37.87 -6.81,-24.39 -16.98,-47.72 -27.88,-70.54 -5.2,-11.62 -11.81,-22.54 -18.23,-33.52 -1.43,-3.24 -5.28,-3.66 -8.36,-4.38 -15.55,-1.79 -31.21,-2.51 -46.86,-2.35 M 87.75,158.42 c -11.36,2.05 -20.71,9.12 -30.04,15.41 -7.61,5.19 -11.23,13.98 -17.01,20.83 -9.33,11.64 -13.47,26.31 -17.42,40.42 -1.82,8.22 -4.48,16.39 -4.27,24.9 0.09,19.04 -1.75,38.58 3.63,57.13 3.65,15.56 13.09,30.19 27.08,38.28 10.15,5.57 22.26,3.44 33.31,3.6 11.46,0.31 21.78,-5.07 31.23,-10.9 5.14,-3.72 9.15,-8.74 13.78,-13.05 11.09,-9.46 15.19,-24.1 21.46,-36.74 4.83,-9.04 3.21,-19.52 3.74,-29.34 -9.86,0.06 -19.73,0.09 -29.59,0.12 -1.55,8.76 -3.65,17.49 -6.86,25.8 -5.9,10.52 -11.96,21.59 -21.98,28.79 -8.06,4.72 -17.03,9.36 -26.77,7.18 -10.94,-0.64 -17.93,-9.75 -25.1,-16.8 -3.97,-3.78 -6.16,-8.97 -7.24,-14.26 -3.52,-11.92 -3,-24.54 -2.65,-36.82 1,-14.25 3.46,-28.84 10.51,-41.45 4.54,-11.54 13.77,-20.08 22.41,-28.58 1.54,-1.41 3.21,-2.75 5.16,-3.56 9.44,-3.35 18.19,-10.19 28.84,-8.34 8.21,0.13 13.35,7.13 18.49,12.49 6.47,6.97 8.86,16.39 10.83,25.43 9.28,0.01 18.56,0.02 27.84,0.07 -0.07,-14.95 -0.2,-31.3 -8.76,-44.27 -5.09,-8.69 -14,-14.46 -23.47,-17.35 -12.34,-0.98 -24.92,-1.15 -37.15,1.01 z"
       id="path5"
       inkscape:connector-curvature="0"
       style="fill:#c9091e" />
  </g>
  <g
     id="#ffffffff"
     transform="matrix(0.97085425,0,0,0.97063318,2.6068214,9.2199277)">
    <path
       d="m 179.22,145.24 c 10.73,-0.07 21.37,-1.33 32.02,-2.48 -0.71,24.8 -5.58,49.35 -4.27,74.24 47.42,0 94.85,0.02 142.28,-0.01 -1.64,-24.71 -4.69,-49.29 -6.48,-73.99 10.73,0.02 21.46,0.02 32.19,0.01 1.35,10.89 1.72,21.86 2.62,32.79 3.56,23.89 5.93,48.02 5.49,72.2 -0.16,33.67 -0.02,67.34 -0.08,101.01 -11.4,-0.03 -22.79,-0.03 -34.19,0 0.13,-12.03 0.86,-24.03 1.83,-36.01 0.97,-21.99 0.11,-44 0.37,-65.99 -48.67,-0.02 -97.33,-0.02 -145.99,0 0.55,33.99 -1.71,68.14 2.22,102 -11.41,-0.02 -22.82,-0.03 -34.23,-0.01 0,-43.33 -0.01,-86.67 -0.03,-130.01 0.02,-24.74 5.14,-49.08 6.25,-73.75 z"
       id="path8"
       inkscape:connector-curvature="0"
       style="fill:#ffffff" />
    <path
       d="m 384.11,144.96 c 15.65,-0.16 31.31,0.56 46.86,2.35 3.08,0.72 6.93,1.14 8.36,4.38 6.42,10.98 13.03,21.9 18.23,33.52 10.9,22.82 21.07,46.15 27.88,70.54 4.5,12.34 7.98,24.98 10.46,37.87 7.12,-18.75 8.44,-38.92 11.59,-58.55 3.37,-22.13 0.97,-44.53 -0.83,-66.68 8.28,-0.5 16.13317,1.84916 23.52766,4.67186 4.98898,1.64635 4.00701,-0.19257 5.20851,11.72383 2.3,11.63 1.45383,25.43431 1.69383,37.21431 -0.23,12.82 0.5,25.71 -0.7,38.49 -3.41,17.75 -4.19,36.11 -10.36,53.24 -3.53,13.42 -8.94,26.2 -13.46,39.29 -13.85,0.21 -27.68,-0.44 -41.42,-2.19 -2.99,-12.64 -5.42,-25.4 -8.86,-37.93 -1.97,-7.75 -5.4,-15.01 -7.59,-22.7 -4.55,-16.51 -12.62,-31.75 -18.48,-47.79 -7.51,-16.21 -15.03,-32.43 -23.75,-48.03 -8.03,-12.27 -8.09659,-12.54299 -22.09453,-37.27422 C 384.31299,145.05969 384.11,144.96 384.11,144.96 z"
       id="path10"
       inkscape:connector-curvature="0"
       style="fill:#ffffff"
       sodipodi:nodetypes="ccccccccccccccccccccc" />
    <path
       d="m 87.75,158.42 c 12.23,-2.16 24.81,-1.99 37.15,-1.01 9.47,2.89 18.38,8.66 23.47,17.35 8.56,12.97 8.69,29.32 8.76,44.27 -9.28,-0.05 -18.56,-0.06 -27.84,-0.07 -1.97,-9.04 -4.36,-18.46 -10.83,-25.43 -5.14,-5.36 -10.28,-12.36 -18.49,-12.49 -10.65,-1.85 -19.4,4.99 -28.84,8.34 -1.95,0.81 -3.62,2.15 -5.16,3.56 -8.64,8.5 -17.87,17.04 -22.41,28.58 -7.05,12.61 -9.51,27.2 -10.51,41.45 -0.35,12.28 -0.87,24.9 2.65,36.82 1.08,5.29 3.27,10.48 7.24,14.26 7.17,7.05 14.16,16.16 25.1,16.8 9.74,2.18 18.71,-2.46 26.77,-7.18 10.02,-7.2 16.08,-18.27 21.98,-28.79 3.21,-8.31 5.31,-17.04 6.86,-25.8 9.86,-0.03 19.73,-0.06 29.59,-0.12 -0.53,9.82 1.09,20.3 -3.74,29.34 -6.27,12.64 -10.37,27.28 -21.46,36.74 -4.63,4.31 -8.64,9.33 -13.78,13.05 -9.45,5.83 -19.77,11.21 -31.23,10.9 -11.05,-0.16 -23.16,1.97 -33.31,-3.6 -13.99,-8.09 -23.43,-22.72 -27.08,-38.28 -5.38,-18.55 -3.54,-38.09 -3.63,-57.13 -0.21,-8.51 2.45,-16.68 4.27,-24.9 3.95,-14.11 8.09,-28.78 17.42,-40.42 5.78,-6.85 9.4,-15.64 17.01,-20.83 9.33,-6.29 18.68,-13.36 30.04,-15.41 z"
       id="path12"
       inkscape:connector-curvature="0"
       style="fill:#ffffff" />
  </g>
</svg>
